HIERARCHY
ROOT Hips
{
  OFFSET -35.4901 99.2528 17.4586
  CHANNELS 6 Xposition Yposition Zposition Zrotation Xrotation Yrotation
  JOINT LeftUpLeg
  {
    OFFSET 8.64259 1.95398 -2.38835
    CHANNELS 3 Zrotation Xrotation Yrotation
    JOINT LeftLeg
    {
      OFFSET 43.7702 0 0
      CHANNELS 3 Zrotation Xrotation Yrotation
      JOINT LeftFoot
      {
        OFFSET 40.6238 0 0
        CHANNELS 3 Zrotation Xrotation Yrotation
        JOINT LeftToeBase
        {
          OFFSET 12.7242 0 0
          CHANNELS 3 Zrotation Xrotation Yrotation
          End Site
          {
            OFFSET 0 0 0
          }
        }
      }
    }
  }
  JOINT RightUpLeg
  {
    OFFSET -8.2249 1.95398 -2.59336
    CHANNELS 3 Zrotation Xrotation Yrotation
    JOINT RightLeg
    {
      OFFSET 43.5653 0 0
      CHANNELS 3 Zrotation Xrotation Yrotation
      JOINT RightFoot
      {
        OFFSET 40.6238 0 0
        CHANNELS 3 Zrotation Xrotation Yrotation
        JOINT RightToeBase
        {
          OFFSET 12.7242 0 0
          CHANNELS 3 Zrotation Xrotation Yrotation
          End Site
          {
            OFFSET 0 0 0
          }
        }
      }
    }
  }
  JOINT Spine
  {
    OFFSET 0.165834 0.87714 6.61349
    CHANNELS 3 Zrotation Xrotation Yrotation
    JOINT Spine1
    {
      OFFSET 7.38963 1.71661e-005 0
      CHANNELS 3 Zrotation Xrotation Yrotation
      JOINT Spine2
      {
        OFFSET 11.9445 1.14441e-005 0
        CHANNELS 3 Zrotation Xrotation Yrotation
        JOINT Spine3
        {
          OFFSET 14.7254 4.19617e-005 0
          CHANNELS 3 Zrotation Xrotation Yrotation
          JOINT Spine4
          {
            OFFSET 10.9679 0 0
            CHANNELS 3 Zrotation Xrotation Yrotation
            JOINT RightShoulder
            {
              OFFSET 2.46616 -1.6653 3.69651
              CHANNELS 3 Zrotation Xrotation Yrotation
              JOINT RightArm
              {
                OFFSET 13.0012 0 0
                CHANNELS 3 Zrotation Xrotation Yrotation
                JOINT RightForeArm
                {
                  OFFSET 28.7848 1.52588e-005 0
                  CHANNELS 3 Zrotation Xrotation Yrotation
                  JOINT RightHand
                  {
                    OFFSET 26.5688 1.52588e-005 0
                    CHANNELS 3 Zrotation Xrotation Yrotation
                    End Site
                    {
                      OFFSET 0 0 0
                    }
                  }
                }
              }
            }
            JOINT LeftShoulder
            {
              OFFSET 2.38034 -1.29275 -3.7523
              CHANNELS 3 Zrotation Xrotation Yrotation
              JOINT LeftArm
              {
                OFFSET 16.3182 6.10351e-005 0
                CHANNELS 3 Zrotation Xrotation Yrotation
                JOINT LeftForeArm
                {
                  OFFSET 27.0901 0 0
                  CHANNELS 3 Zrotation Xrotation Yrotation
                  JOINT LeftHand
                  {
                    OFFSET 24.5451 1.52588e-005 0
                    CHANNELS 3 Zrotation Xrotation Yrotation
                    End Site
                    {
                      OFFSET 0 0 0
                    }
                  }
                }
              }
            }
            JOINT Neck
            {
              OFFSET 5.0226 -0.0266342 0
              CHANNELS 3 Zrotation Xrotation Yrotation
              JOINT Head
              {
                OFFSET 6.69364 2.86102e-005 0
                CHANNELS 3 Zrotation Xrotation Yrotation
                End Site
                {
                  OFFSET 0 0 0
                }
              }
            }
          }
        }
      }
    }
  }
}
MOTION
Frames:	18
Frame Time:	0.0416667
-30.0048 98.0247 64.8143 100.492 32.1062 84.4911 -175.57 4.78528 90.6538 -25.0952 5.10104 -2.15753 73.3125 5.73009 1.07432 15.9357 -1.90886 3.54659 175.183 8.08714 88.8447 -23.2123 -19.3365 -3.43525 66.1634 -3.70967 -0.286252 24.5299 -0.0664607 0.726451 -0.745144 7.65536 -90.271 11.5613 -1.60915 -0.374149 -0.108641 -1.62407 -0.302951 -22.65 -1.42229 -0.840545 -2.63733 -1.4223 -0.840554 93.6481 -29.4629 -99.6072 45.4645 -0.0121732 12.9361 4.34518 -18.439 -12.1828 -21.8272 0.544021 -10.6054 -81.1862 -44.4224 91.6302 -35.7772 -13.5916 -26.5698 26.0086 15.4874 -38.4448 4.27362 -0.458127 -10.719 -25.1524 1.49769 -1.96664 -11.9621 0.867466 5.96992 
-27.893 98.503 64.0742 98.9096 33.8179 85.561 -175.679 3.99135 91.1298 -22.9716 5.89732 -1.45145 73.2851 6.09025 0.125865 15.5193 -1.92655 3.57992 173.961 6.69167 89.168 -20.7159 -18.5079 -2.94198 66.7796 -3.5789 0.0776423 23.5071 -0.465147 1.79289 -0.65446 7.62165 -90.343 11.6274 -1.46253 -0.531739 -0.0428027 -1.4845 -0.466849 -22.5821 -1.23511 -0.946744 -2.56941 -1.2351 -0.946745 94.2755 -28.572 -98.5697 46.9721 0.178073 12.6779 4.45673 -20.1432 -11.6392 -20.8406 0.439231 -10.5584 -80.8411 -45.7163 92.2733 -35.4117 -9.78712 -22.0124 25.0817 16.3984 -37.3548 2.72214 -0.365912 -10.5272 -25.8172 1.21814 -1.59858 -11.8213 0.687586 5.02648 
-25.8924 98.8149 63.4566 97.5866 33.1197 86.2655 -175.618 2.36513 91.3706 -20.4225 5.04974 -1.39007 73.1879 6.29076 0.163863 17.3543 -2.21784 3.94801 173.429 5.61303 89.238 -18.8819 -19.5118 -2.69651 67.1994 -3.58124 0.377506 23.1503 -0.738405 2.46166 -0.338066 7.63171 -90.3275 11.6084 -0.825981 -0.567039 -0.0624182 -0.850122 -0.530145 -22.5978 -0.617358 -0.789058 -2.58519 -0.617379 -0.789067 94.3091 -28.3179 -98.5648 46.9478 -1.47791 12.4086 2.96388 -22.0114 -16.0112 -22.5583 0.528916 -10.8818 -80.6496 -45.6178 92.5727 -35.3152 -3.7434 -15.17 16.9611 13.2268 -26.4031 1.67686 -0.251316 -8.94061 -26.4563 1.58455 -1.85905 -11.7517 1.03256 5.07115 
-23.9023 98.8839 63.0744 95.9989 33.2143 87.0573 -175.241 2.06768 91.8103 -19.4129 5.70641 -1.49494 74.1421 6.95646 0.0875006 16.5989 -3.08595 5.11747 173.272 5.50506 89.6465 -18.4077 -20.5643 -2.40254 67.8758 -3.9192 -1.23884 21.4994 -0.740777 2.58537 -0.235112 7.56067 -90.3274 11.7507 -0.621291 -0.587119 0.0797276 -0.646545 -0.559209 -22.455 -0.41614 -0.7467 -2.44233 -0.416144 -0.746702 94.6963 -27.1285 -98.0711 46.3955 -1.77655 10.0617 0.846852 -23.0754 -18.9581 -23.0589 0.562544 -11.1159 -80.3413 -48.0457 93.1914 -32.691 3.27132 -7.85752 7.81053 7.28037 -11.4276 -1.79779 -0.108779 -8.00729 -27.8456 1.60032 -0.285107 -11.1572 1.32531 3.75657 
-22.3916 98.837 62.9564 94.5192 32.3212 87.5105 -175.315 2.28692 91.6648 -19.386 4.41218 -1.40728 74.5772 7.32359 0.0872129 17.9452 -3.09098 5.13984 173.217 6.17854 89.6851 -18.9127 -21.7595 -2.30254 68.9078 -4.41723 -1.87392 20.3497 -0.788349 2.76628 -0.0179917 7.59496 -90.2922 11.6831 -0.172753 -0.564259 0.0120496 -0.197407 -0.556115 -22.5221 0.0048015 -0.590092 -2.50947 0.00481473 -0.590093 95.1265 -25.8332 -97.4922 45.1025 -1.94537 7.92861 -1.11469 -22.9008 -22.1809 -24.9761 0.780903 -11.717 -79.8581 -50.1562 94.0279 -33.039 3.73514 1.36454 5.32519 7.25894 -4.41293 -3.9704 -0.0785394 -5.14426 -27.9129 1.62272 0.844944 -10.83 1.51949 3.20009 
-21.771 98.4875 63.7309 92.0458 32.7853 88.7662 -175.061 6.98157 92.405 -24.2702 2.40089 -1.4645 76.1506 7.69725 -2.25217 16.5514 -2.99954 4.98923 173.699 9.33039 90.4555 -21.1951 -20.8942 -2.07864 70.0183 -4.92307 -2.52981 19.665 -0.941648 3.14129 0.250721 7.72223 -90.2611 11.4304 0.377085 -0.557884 -0.240622 0.352155 -0.573946 -22.7756 0.527325 -0.418769 -2.76292 0.52731 -0.418773 94.5387 -26.4441 -98.5902 41.084 -1.58461 6.7584 -3.10547 -23.8424 -24.5198 -25.1829 0.600442 -10.9115 -79.7005 -50.7661 94.2893 -33.164 -0.0514454 9.15061 6.25807 6.47792 -4.87698 -6.91498 -0.0281204 -5.63965 -25.5163 1.36637 -0.379505 -10.1426 1.16923 3.01993 
-22.619 97.3808 65.2749 88.0903 35.2481 90.5205 -175.501 16.8059 91.7475 -33.5219 6.42551 -0.746196 75.1752 7.44378 -1.43177 18.8653 -3.23637 5.32064 173.986 16.6616 90.8293 -27.4782 -18.2239 -1.72073 72.2534 -5.68389 -2.87139 19.3107 -0.855283 2.97555 0.425772 8.00727 -90.2443 10.861 0.734867 -0.555296 -0.809882 0.709715 -0.587113 -23.3464 0.867782 -0.308756 -3.33372 0.867776 -0.30876 93.7818 -25.9526 -100.365 36.2164 -2.81823 3.95397 -0.941644 -22.356 -21.411 -25.8554 0.633394 -10.6561 -80.4669 -49.8035 93.0898 -31.3458 -0.581414 8.13214 6.12427 4.22836 -3.2181 -7.9864 0.00340264 -6.34783 -19.8279 0.575132 -1.36282 -9.29587 0.427152 1.675 
-24.3696 96.0854 67.3767 81.7323 36.2142 93.9613 -176.304 27.9923 91.5858 -38.4656 10.5268 -0.45351 75.502 7.07302 -3.22008 23.3596 -5.88649 9.46217 174.527 26.2715 91.3001 -32.6624 -16.3647 -1.22963 73.2307 -6.17398 -2.89648 19.2688 -0.929714 3.13677 0.61558 8.36235 -90.2094 10.1519 1.13114 -0.511125 -1.51869 1.10754 -0.56043 -24.0577 1.23247 -0.147489 -4.04503 1.23245 -0.147507 92.5354 -25.4187 -103.222 29.6149 -4.18576 -1.70384 2.22862 -21.3119 -16.2626 -26.5325 0.447668 -9.43843 -82.2176 -48.0842 90.2861 -28.9223 -0.711537 0.5123 6.67732 5.62833 -1.81762 -4.38902 -0.0784605 -5.05532 -11.6905 -0.547177 -2.38289 -7.87478 -0.487021 0.527269 
-26.2917 94.701 69.2858 75.3572 35.8397 96.7423 -177.357 37.3255 90.8278 -38.2293 9.96162 -1.01476 72.7671 5.9328 -2.41431 22.9788 -5.10608 8.27563 174.511 35.8277 90.9039 -37.1583 -16.4001 -0.512352 73.9174 -6.63304 -3.01376 18.5276 -1.06959 3.46988 0.683185 8.75949 -90.101 9.35687 1.31706 -0.298344 -2.31347 1.30266 -0.356035 -24.854 1.34581 0.111347 -4.84133 1.34581 0.111351 91.0206 -24.841 -106.718 21.6871 -4.41735 -9.66339 4.51546 -24.3718 -11.4266 -24.9354 -0.235389 -6.68554 -84.4496 -46.8003 86.6726 -24.0883 2.36068 -11.7707 5.28172 6.21223 0.136623 -1.86362 -0.0956321 -5.8326 -4.48978 -0.69641 -1.27723 -6.86309 -0.550202 -0.519595 
-28.1578 92.3473 70.9603 69.9238 34.8868 99.9275 -177.156 46.5381 91.2463 -42.2272 6.05962 -1.97621 74.7438 6.56196 -2.87819 16.6997 -3.69206 5.89993 173.236 45.5065 91.517 -43.3339 -17.4509 1.11761 75.825 -7.70086 -3.23841 17.2859 -1.29108 3.98212 0.723481 9.14142 -90.1273 8.59335 1.38735 -0.340187 -3.07692 1.37103 -0.400936 -25.618 1.42543 0.0925796 -5.60537 1.42543 0.0925712 89.8254 -22.0468 -110.613 16.2445 -1.43898 -17.5841 5.64522 -22.3261 -8.78378 -25.5683 -0.378004 -5.64957 -86.3577 -44.3625 83.276 -18.4282 4.93483 -27.4559 3.84431 9.55812 0.0619148 1.61233 -0.0924298 -4.54023 1.31676 -0.755745 0.247502 -6.21403 -0.73558 -1.14645 
-29.7144 88.3672 72.3773 65.3218 34.0187 102.524 -173.472 57.5982 90.2717 -52.9979 9.53488 -3.38072 79.1111 8.03216 -3.0503 15.2655 -5.03639 7.63112 170.777 56.2758 93.0425 -53.3666 -18.4676 2.51078 80.0216 -9.82 -3.17968 15.6311 -1.63432 4.70844 0.70934 9.50692 -90.1073 7.86189 1.36925 -0.285793 -3.80839 1.35534 -0.3458 -26.3493 1.39182 0.139019 -6.33667 1.39183 0.139012 88.9443 -20.7274 -113.284 10.9985 3.76072 -26.3446 4.67706 -20.3143 -8.5772 -26.9423 -0.20179 -6.24318 -87.6868 -39.6231 80.1442 -13.3431 4.81621 -42.2298 3.55007 9.99067 -0.523682 0.0408987 -0.0942137 -5.10634 6.5943 -0.59863 0.460259 -6.10853 -0.652536 -0.796531 
-30.961 83.1207 73.4522 62.1209 33.3817 105.009 -164.197 68.7689 85.0155 -65.6636 14.3149 -4.23124 82.7719 9.4372 -3.18111 12.5021 -4.93695 7.40443 162.845 66.1174 98.7238 -64.7086 -20.9145 4.24726 84.7438 -11.8618 -2.03492 13.6665 -1.62933 4.7353 0.822707 9.81431 -90.2205 7.24861 1.54794 -0.506223 -4.42156 1.52415 -0.57388 -26.9641 1.6285 -0.0174772 -6.95145 1.62849 -0.0174857 88.7726 -20.2201 -113.962 8.76773 9.32183 -35.1869 4.89767 -16.1792 -7.49374 -30.6306 0.379172 -7.99354 -89.1889 -35.9802 76.6457 -9.86524 0.552254 -56.2037 5.3451 10.8504 -3.55162 2.41993 -0.255771 -8.3171 9.04882 -1.54232 -0.283204 -4.61379 -1.45096 0.150249 
-31.7095 76.7971 73.8433 61.979 33.0234 105.662 -137.924 76.3342 64.8552 -79.0823 21.6145 -4.56028 83.0235 10.0129 -0.6764 14.0298 -0.299091 1.49938 146.058 72.5704 111.871 -77.0792 -25.1865 5.18815 90.1515 -14.4673 -1.64485 10.7999 -3.02605 7.25303 0.893117 10.1762 -90.3488 6.52615 1.63578 -0.745775 -5.14403 1.60139 -0.817059 -27.6871 1.78428 -0.219542 -7.67442 1.78427 -0.219552 87.9457 -17.8691 -117.313 6.82614 12.1313 -40.2169 4.34658 -11.8703 -7.72272 -29.4229 0.297877 -7.36232 -89.402 -30.6317 74.6544 -11.261 -2.5445 -66.6271 8.03405 10.8816 -7.15476 5.12735 -0.340883 -8.17909 10.1126 -1.99721 -0.14943 -3.18992 -1.91453 0.235086 
-32.1712 69.8324 73.691 62.7038 32.1123 105.329 -88.6389 75.9687 25.3312 -91.9812 31.4048 -4.14432 86.2079 11.3605 -1.25399 1.8699 1.61195 0.210219 112.99 74.3337 138.065 -88.2478 -37.0882 6.08334 93.4992 -17.4754 -4.90762 4.57755 -4.39218 9.24884 1.10188 10.4578 -90.3575 5.96446 2.0512 -0.76348 -5.70512 2.01562 -0.853063 -28.2532 2.18578 -0.111436 -8.24057 2.18579 -0.111436 88.0453 -16.6903 -117.871 5.70037 13.2723 -45.3616 5.16116 -8.73494 -5.64122 -29.443 0.0968763 -6.26407 -88.6446 -26.3604 74.7188 -13.5875 -2.85553 -77.0034 8.59238 10.815 -3.50318 3.89986 -0.199616 -6.31721 13.3973 -2.10244 -1.02236 -4.84071 -1.82502 1.42601 
-32.4278 62.8452 73.1266 63.9045 32.0115 104.085 -60.1852 69.7214 2.82911 -105.818 35.7149 -0.183573 87.5449 11.9262 -1.50619 -7.25903 4.77597 -1.9682 84.3804 73.3203 161.174 -101.266 -40.5831 3.8277 98.3049 -19.1645 -2.64318 -1.86497 -6.45631 11.6517 1.02215 10.6444 -90.3814 5.59075 1.88318 -0.795161 -6.07912 1.84641 -0.877297 -28.625 2.03508 -0.1922 -8.61235 2.03509 -0.192213 88.1461 -15.9216 -118.159 6.31027 14.5698 -49.0836 4.97424 -6.11091 -5.1461 -26.4716 -0.118622 -5.1889 -88.9846 -26.7047 74.1466 -11.433 -3.00248 -80.1464 6.98537 6.76812 -0.299181 4.41106 -0.0890034 -4.33108 13.4013 -1.20523 0.084212 -4.45397 -1.21913 1.24906 
-32.4276 56.5603 72.5802 67.5637 31.7995 102.424 -47.5461 64.2773 -6.78767 -119.986 35.4114 5.72856 89.8002 13.294 -0.48728 -13.4984 2.9142 0.19049 68.7757 70.4274 174.154 -113.99 -41.0093 0.533877 98.9607 -20.101 -3.5024 -2.64498 -8.50875 14.4239 0.997787 11.0841 -90.456 4.71147 1.8071 -0.917749 -6.95861 1.76495 -0.996419 -29.5033 1.99935 -0.33202 -9.49066 1.99935 -0.332036 88.5748 -15.0752 -117.705 5.13598 14.6908 -51.1141 5.24935 -3.96064 -6.20804 -26.2478 -0.060072 -5.27852 -89.3424 -27.7344 73.7971 -10.8231 -3.84046 -80.5891 6.75302 1.48482 0.0101214 6.6276 0.0454072 -2.6427 13.7193 0.182221 -1.46359 -4.53721 0.483422 3.19963 
-32.4255 51.1192 71.9938 71.4466 31.8541 100.147 -41.6218 59.0039 -10.6943 -130.544 32.0095 9.73994 90.3782 13.6256 0.316817 -13.3078 3.57157 -0.472352 59.4649 68.2581 -179.189 -124.052 -41.4753 -2.02042 100.182 -21.0475 -3.91663 -4.6648 -10.3514 16.5796 0.974793 11.4509 -90.4016 3.97684 1.78578 -0.792646 -7.69315 1.74916 -0.870482 -30.2379 1.94142 -0.219113 -10.2252 1.94143 -0.21913 89.0199 -14.9047 -116.719 5.47851 15.1601 -51.2658 5.30878 -4.66631 -5.30459 -23.8084 0.335978 -7.51146 -89.2657 -27.1267 73.7349 -9.42876 -4.01368 -78.9199 5.79548 -6.84185 0.0465552 1.82789 -0.151878 -6.51464 12.4702 1.63553 -3.64836 -4.93805 2.38509 4.29345 
-32.0111 46.2942 71.3512 75.5531 32.3651 98.2567 -36.8037 54.2675 -13.1984 -139.226 28.7003 12.4982 88.8333 12.7478 0.798383 -11.9326 4.86689 -1.78217 54.4764 66.509 -177.686 -132.822 -43.7254 -3.97661 101.795 -21.9544 -3.88367 -12.239 -8.68591 13.2363 0.966706 11.762 -90.4762 3.35544 1.7419 -0.9233 -8.31472 1.69958 -0.999088 -30.8587 1.93883 -0.356946 -10.846 1.93883 -0.356961 89.9711 -13.9916 -114.94 7.26457 15.4311 -49.6542 3.79519 -5.09632 -10.6875 -18.8789 1.39623 -14.6318 -89.1747 -27.2932 73.9749 -7.94812 -3.97216 -77.2484 5.10533 -6.41512 -0.667429 -8.93122 0.502198 -13.6332 11.05 2.83543 -4.79696 -4.33739 3.77188 5.88503 
